<?xml version="1.0" encoding="UTF-8" standalone="no"?>
<svg
   width="1024"
   height="1024"
   viewBox="0 0 1024 1024"
   version="1.1"
   id="svg930"
   xmlns:xlink="http://www.w3.org/1999/xlink"
   xmlns="http://www.w3.org/2000/svg"
   xmlns:svg="http://www.w3.org/2000/svg"
   xmlns:rdf="http://www.w3.org/1999/02/22-rdf-syntax-ns#"
   xmlns:cc="http://creativecommons.org/ns#"
   xmlns:dc="http://purl.org/dc/elements/1.1/">
  <defs
     id="defs924">
    <rect
       x="1140"
       y="540"
       width="600"
       height="120"
       id="rect1422" />
    <rect
       x="1080"
       y="240"
       width="720"
       height="720"
       id="rect1406" />
    <rect
       id="rect1150"
       height="418.40784"
       width="405.60037"
       y="1345.3192"
       x="197.79568" />
    <rect
       id="rect1140"
       height="815.90662"
       width="1096.2867"
       y="1224.3033"
       x="35.345726" />
    <linearGradient
       id="linearGradient1041">
      <stop
         style="stop-color:#1e88c9;stop-opacity:1"
         offset="0"
         id="stop1037" />
      <stop
         style="stop-color:#fe3ed7;stop-opacity:1"
         offset="1"
         id="stop1039" />
    </linearGradient>
    <rect
       id="rect1462"
       height="360"
       width="1200"
       y="360"
       x="120" />
    <clipPath
       id="clipPath1450"
       clipPathUnits="userSpaceOnUse">
      <rect
         style="fill:#979797;fill-opacity:1;stroke-width:5;paint-order:markers stroke fill;stop-color:#000000"
         id="rect1452"
         width="1920"
         height="1080"
         x="0"
         y="1.0734863e-07" />
    </clipPath>
    <linearGradient
       y2="468.29794"
       x2="1125.4"
       y1="468.29794"
       x1="112.85"
       gradientUnits="userSpaceOnUse"
       id="linearGradient2271"
       xlink:href="#linearGradient1041" />
    <filter
       id="filter2739"
       style="color-interpolation-filters:sRGB">
      <feComponentTransfer
         id="feComponentTransfer2737"
         result="component">
        <feFuncR
           id="feFuncR2731"
           offset="0"
           exponent="1.5"
           amplitude="1"
           type="gamma" />
        <feFuncG
           id="feFuncG2733"
           offset="0"
           exponent="1.5"
           amplitude="1"
           type="gamma" />
        <feFuncB
           id="feFuncB2735"
           offset="0"
           exponent="1.5"
           amplitude="1"
           type="gamma" />
      </feComponentTransfer>
    </filter>
    <clipPath
       clipPathUnits="userSpaceOnUse"
       id="clipPath1274">
      <rect
         style="opacity:1;fill:#1a4000;fill-opacity:0.703898;stroke-width:35.7585;stroke-linecap:round;paint-order:stroke fill markers;stop-color:#000000"
         id="rect1276"
         width="393.47379"
         height="682.43567"
         x="38.464684"
         y="-839.21704"
         ry="1.919494"
         rx="20.052385"
         transform="rotate(90)" />
    </clipPath>
    <clipPath
       clipPathUnits="userSpaceOnUse"
       id="clipPath1297">
      <rect
         style="opacity:1;fill:url(#linearGradient1301);fill-opacity:1;stroke-width:35.7585;stroke-linecap:round;paint-order:stroke fill markers;stop-color:#000000"
         id="rect1299"
         width="393.47379"
         height="682.43567"
         x="67.613762"
         y="200.44244"
         ry="1.919494"
         rx="20.052385" />
    </clipPath>
    <clipPath
       id="clipPath1693"
       clipPathUnits="userSpaceOnUse">
      <rect
         style="opacity:1;fill:#3f9d00;fill-opacity:0.703898;stroke-width:39.9245;stroke-linecap:round;paint-order:stroke fill markers;stop-color:#000000"
         id="rect1695"
         width="403.45599"
         height="829.66309"
         x="62.62262"
         y="125.92955"
         ry="58.288395"
         rx="63.462509" />
    </clipPath>
    <filter
       id="filter1968"
       style="color-interpolation-filters:sRGB">
      <feColorMatrix
         id="feColorMatrix1966"
         values="1.24185 0 0 0.0637718 -0.120926 0 1.24185 0 0.0637718 -0.120926 0 0 1.24185 0.0637718 -0.120926 0 0 0 1 0" />
    </filter>
    <rect
       x="120"
       y="360"
       width="1200"
       height="360"
       id="rect1264" />
    <filter
       id="filter1322"
       style="color-interpolation-filters:sRGB">
      <feGaussianBlur
         id="feGaussianBlur1320"
         result="blur"
         stdDeviation="16 16" />
    </filter>
    <clipPath
       id="clipPath7753"
       clipPathUnits="userSpaceOnUse">
      <circle
         r="117.43621"
         cy="-235.48683"
         cx="1318.3634"
         id="circle7755"
         style="opacity:1;fill:#00ffff;fill-opacity:0.39073;stroke:none;stroke-width:25.6264;stroke-linecap:square;stroke-linejoin:miter;stroke-miterlimit:4;stroke-dasharray:none;stroke-opacity:1;paint-order:stroke fill markers;stop-color:#000000" />
    </clipPath>
    <rect
       id="rect1418"
       height="720"
       width="720"
       y="240"
       x="1080" />
    <rect
       id="rect1568"
       height="720"
       width="720"
       y="240"
       x="1080" />
    <rect
       x="1080"
       y="240"
       width="720"
       height="720"
       id="rect1570" />
    <rect
       id="rect1572"
       height="120"
       width="600"
       y="540"
       x="1140" />
    <rect
       id="rect1036"
       height="720"
       width="720"
       y="240"
       x="1080" />
    <rect
       id="rect1046"
       height="720"
       width="720"
       y="240"
       x="1080" />
    <linearGradient
       y2="-368.21875"
       x2="1080.4045"
       y1="-789.49884"
       x1="1080.4045"
       gradientUnits="userSpaceOnUse"
       id="linearGradient3619"
       xlink:href="#linearGradient1041" />
    <linearGradient
       gradientTransform="translate(270.93301,541.86603)"
       y2="42.29657"
       x2="270.93301"
       y1="-0.43453863"
       x1="111.45834"
       gradientUnits="userSpaceOnUse"
       id="linearGradient2137"
       xlink:href="#linearGradient2064" />
    <linearGradient
       id="linearGradient2064">
      <stop
         id="stop2060"
         offset="0"
         style="stop-color:#a56de2;stop-opacity:1;" />
      <stop
         id="stop2062"
         offset="1"
         style="stop-color:#0d52bf;stop-opacity:1" />
    </linearGradient>
    <linearGradient
       gradientTransform="translate(270.93301,541.86603)"
       gradientUnits="userSpaceOnUse"
       y2="233.33475"
       x2="161.63959"
       y1="190.02354"
       x1="0"
       id="linearGradient2088"
       xlink:href="#linearGradient2094" />
    <linearGradient
       id="linearGradient2094">
      <stop
         id="stop2092"
         offset="0"
         style="stop-color:#0d52bf;stop-opacity:1" />
      <stop
         id="stop2090"
         offset="1"
         style="stop-color:#a56de2;stop-opacity:1;" />
    </linearGradient>
    <linearGradient
       gradientTransform="translate(270.93301,541.86603)"
       gradientUnits="userSpaceOnUse"
       y2="115.66741"
       x2="165.45107"
       y1="115.66741"
       x1="126.42688"
       id="linearGradient2104"
       xlink:href="#linearGradient2094" />
    <filter
       style="color-interpolation-filters:sRGB"
       id="filter1898"
       x="-0.0050054542"
       width="1.0100109"
       y="-0.007705849"
       height="1.0154117">
      <feGaussianBlur
         stdDeviation="0.054718718"
         id="feGaussianBlur1900" />
    </filter>
    <filter
       style="color-interpolation-filters:sRGB"
       id="filter1894"
       x="-0.00602986"
       width="1.0120597"
       y="-0.0058172451"
       height="1.0116345">
      <feGaussianBlur
         stdDeviation="0.054718718"
         id="feGaussianBlur1896" />
    </filter>
  </defs>
  <metadata
     id="metadata927">
    <rdf:RDF>
      <cc:Work
         rdf:about="">
        <dc:format>image/svg+xml</dc:format>
        <dc:type
           rdf:resource="http://purl.org/dc/dcmitype/StillImage" />
        <dc:creator>
          <cc:Agent>
            <dc:title>Naseef</dc:title>
          </cc:Agent>
        </dc:creator>
        <dc:language />
        <dc:date>14/04/2020</dc:date>
      </cc:Work>
    </rdf:RDF>
  </metadata>
  <g
     style="display:inline;opacity:1"
     id="layer1">
    <text
       style="font-style:normal;font-variant:normal;font-weight:900;font-stretch:normal;font-size:40px;line-height:1.25;font-family:Roboto;-inkscape-font-specification:'Roboto Heavy';letter-spacing:0px;word-spacing:0px;white-space:pre;shape-inside:url(#rect1140)"
       id="text1138"
       xml:space="preserve" />
    <text
       id="text1146"
       y="1462.0997"
       x="335.75784"
       style="font-size:40px;line-height:1.25;font-family:'Clear Sans Light';-inkscape-font-specification:'Clear Sans Light, ';letter-spacing:0px;word-spacing:0px"
       xml:space="preserve"><tspan
         y="1462.0997"
         x="335.75784"
         id="tspan1144" /></text>
    <text
       style="font-size:40px;line-height:1.25;font-family:'Clear Sans Light';-inkscape-font-specification:'Clear Sans Light, ';letter-spacing:0px;word-spacing:0px;white-space:pre;shape-inside:url(#rect1150)"
       id="text1148"
       xml:space="preserve" />
    <g
       transform="translate(0,182.00428)"
       id="g1180" />
    <g
       id="g2026"
       style="display:inline;mix-blend-mode:luminosity"
       transform="scale(3.7795322)">
      <path
         d="m 155.42868,-507.93535 c -1.08935,0.01 -2.00366,0.13047 -2.7218,0.3607 -2.95655,0.94754 -2.89623,0.90795 -29.06331,18.74561 -10.93185,7.45363 -27.599084,18.56611 -32.415034,21.61467 l -8.2615,5.2343 c -6.24105,3.92162 -8.79753,7.83847 -10.26551,12.45762 -2.04189,8.19463 3.73399,12.2464 10.61639,10.22469 0.91482,-0.30621 3.0316,-1.42633 4.70255,-2.48719 2.05365,-1.28946 4.13633,-2.53191 6.24664,-3.72638 4.62307,-2.58999 11.350434,-6.32439 13.507174,-7.49772 1.02098,-0.55502 2.84454,-1.57639 4.05143,-2.26963 1.20752,-0.69303 3.03076,-1.71711 4.05194,-2.27634 2.48116,-1.37301 4.95702,-2.75459 7.42848,-4.14496 3.06417,-1.72202 6.17908,-3.46622 6.92256,-3.87625 9.37254,-5.18104 10.21626,-5.58099 11.74708,-5.57381 1.74271,0.008 6.51229,0.82715 9.00564,1.54719 l 1.84433,0.53278 1.87016,-1.97817 c 3.66013,-3.87074 6.05193,-6.93882 9.69139,-12.43282 1.82162,-2.74932 2.50933,-3.9234 5.2405,-8.94827 0.45372,-0.83569 1.07827,-2.15821 1.38596,-2.93988 0.40894,-1.02013 0.83557,-2.03346 1.27899,-3.03908 1.68445,-3.7992 2.43263,-6.21801 2.04328,-6.60631 -0.16334,-0.16439 -1.87449,-0.51135 -3.80079,-0.77049 -3.48539,-0.46997 -4.61625,-0.65428 -10.08619,-1.64486 -1.93094,-0.34947 -3.61995,-0.51827 -5.02036,-0.5054 z m 25.7679,2.41329 c -1.02266,-0.031 -1.32472,0.50217 -1.81642,2.17712 -1.71422,5.84072 -6.6127,15.26599 -11.6401,22.39654 -1.72118,2.43974 -4.3243,5.83256 -4.92321,6.41459 -0.0956,0.0927 -1.06754,1.20469 -2.16111,2.46961 -1.3869,1.6049 -1.88185,2.40625 -1.63452,2.65358 0.44338,0.44338 2.63953,0.9667 10.54456,2.51251 3.43601,0.6715 6.7785,1.33806 7.42848,1.48156 v -5.3e-4 c 0.79409,0.16111 1.59978,0.26111 2.40915,0.29921 1.16278,0.0367 1.3314,-0.10564 3.23598,-2.74712 7.40657,-10.27238 12.08221,-20.42036 13.8074,-29.96764 0.57738,-3.20156 0.59496,-5.05016 0.0476,-5.20484 -0.23214,-0.0654 -3.0814,-0.52144 -6.33087,-1.01441 -3.25009,-0.49297 -6.70127,-1.06598 -7.67033,-1.27279 -0.53475,-0.11396 -0.95575,-0.18685 -1.29656,-0.1974 z m 25.32607,2.87062 -0.43615,1.81849 c -0.49276,2.06347 -2.9093,9.37885 -3.62871,10.98692 -0.2623,0.5854 -0.47646,1.15817 -0.47646,1.27382 0,0.25113 -3.63914,7.56299 -4.71857,9.48106 -2.89915,5.15022 -5.87854,9.78455 -8.20517,12.76199 -0.55037,0.70506 -0.91448,1.3691 -0.8077,1.47588 0.10678,0.107 0.90241,-0.24133 1.76785,-0.77566 5.66367,-3.48962 10.18478,-4.53253 14.32417,-3.30264 2.04025,0.60546 2.79404,1.04294 5.33507,3.08973 h -10e-4 c 2.31629,1.86637 3.13377,1.86714 4.22248,0.004 3.49194,-5.97894 6.94955,-13.87903 8.63253,-19.72693 1.52027,-5.28339 3.12504,-15.09423 2.5523,-15.60472 -0.29186,-0.2583 -6.50094,-0.78951 -14.83732,-1.26813 z m 32.32512,0.89969 c -0.71193,-10e-4 -1.36669,0.0485 -2.10013,0.18603 -3.75847,0.70907 -3.27614,0.5352 -4.69428,8.29251 -0.16988,0.92854 -0.56226,2.59922 -0.87333,3.71346 -0.31021,1.11509 -0.64034,2.40668 -0.73277,2.87011 -0.4035,2.02274 -3.26269,11.09451 -5.05498,16.03982 -1.186,3.27247 -5.11934,12.89991 -5.89214,14.42081 -0.34925,0.68923 -0.63562,1.41991 -0.63562,1.62419 0,0.45688 4.31498,0.18567 11.97754,-4.68136 8.13949,-5.16837 8.6577,-8.08572 10.89907,-9.69294 5.78209,-4.0222 19.1673,3.89803 29.19198,6.63835 v -37.22869 l -27.41948,-1.92856 c -2.13388,-0.10981 -3.4793,-0.25211 -4.66586,-0.25373 z m -38.69475,39.09058 c -3.01366,0.0579 -5.98785,2.05157 -7.34217,3.94239 -1.473,2.07698 -8.72556,13.51094 -8.72556,13.75574 0,0.13632 -0.79906,1.38995 -5.35987,8.39999 -1.9071,2.93123 -2.50078,5.05258 -2.20555,7.89201 0.76008,6.35784 9.5083,9.47248 13.80121,8.28373 2.06009,-0.70274 3.6981,-2.33988 5.90971,-5.91075 1.18325,-1.90377 2.37824,-3.80066 3.58427,-5.69008 1.24998,-1.9611 2.48585,-3.93081 3.7083,-5.90919 1.33063,-2.14888 2.67807,-4.28728 4.04212,-6.41511 3.67618,-5.72043 4.28896,-8.40522 2.68976,-11.78531 -1.71716,-3.62996 -5.55718,-6.27725 -9.49967,-6.54843 -0.20079,-0.0139 -0.40164,-0.0188 -0.60255,-0.015 z"
         style="display:inline;fill:#ffffff;fill-opacity:0.9;stroke-width:0.211032"
         id="path2100" />
      <g
         id="g2149"
         style="display:inline;mix-blend-mode:luminosity"
         transform="translate(-270.93301,-541.86603)">
        <rect
           y="541.86603"
           x="270.93301"
           height="270.93301"
           width="270.93301"
           id="rect2028"
           style="display:inline;fill:#e6e5e5;fill-opacity:1;stroke-width:4.23333;stroke-linecap:round;stroke-linejoin:round;paint-order:stroke markers fill" />
        <path
           id="path2030"
           style="display:inline;fill:url(#linearGradient2137);fill-opacity:1;stroke-width:0.211032"
           d="m 426.36158,575.79671 c -1.08935,0.01 -2.00366,0.13047 -2.7218,0.3607 -2.95655,0.94754 -2.89623,0.90795 -29.06331,18.74561 -10.93185,7.45363 -27.59908,18.56611 -32.41503,21.61467 l -8.2615,5.2343 c -6.24105,3.92162 -8.79753,7.83847 -10.26551,12.45762 -2.04189,8.19463 3.73399,12.2464 10.61639,10.22469 0.91482,-0.30621 3.0316,-1.42633 4.70255,-2.48719 2.05365,-1.28946 4.13633,-2.53191 6.24664,-3.72638 4.62307,-2.58999 11.35043,-6.32439 13.50717,-7.49772 1.02098,-0.55502 2.84454,-1.57639 4.05143,-2.26963 1.20752,-0.69303 3.03076,-1.71711 4.05194,-2.27634 2.48116,-1.37301 4.95702,-2.75459 7.42848,-4.14496 3.06417,-1.72202 6.17908,-3.46622 6.92256,-3.87625 9.37254,-5.18104 10.21626,-5.58099 11.74708,-5.57381 1.74271,0.008 6.51229,0.82715 9.00564,1.54719 l 1.84433,0.53278 1.87016,-1.97817 c 3.66013,-3.87074 6.05193,-6.93882 9.69139,-12.43282 1.82162,-2.74931 2.50933,-3.9234 5.2405,-8.94828 0.45372,-0.83568 1.07827,-2.1582 1.38596,-2.93986 0.40894,-1.02014 0.83557,-2.03347 1.27899,-3.03909 1.68445,-3.7992 2.43263,-6.21801 2.04328,-6.60631 -0.16334,-0.16439 -1.87449,-0.51135 -3.80079,-0.77049 -3.48539,-0.46997 -4.61625,-0.65428 -10.08619,-1.64486 -1.93094,-0.34947 -3.61995,-0.51827 -5.02036,-0.5054 z m 25.7679,2.41329 c -1.02266,-0.031 -1.32472,0.50217 -1.81642,2.17712 -1.71422,5.84072 -6.6127,15.266 -11.6401,22.39654 -1.72118,2.43974 -4.3243,5.83256 -4.92321,6.41459 -0.0956,0.0927 -1.06754,1.20469 -2.16111,2.46961 -1.3869,1.6049 -1.88185,2.40625 -1.63452,2.65358 0.44338,0.44338 2.63953,0.9667 10.54456,2.51251 3.43601,0.6715 6.7785,1.33806 7.42848,1.48156 v -5.3e-4 c 0.79409,0.16111 1.59978,0.26111 2.40915,0.29921 1.16278,0.0367 1.3314,-0.10564 3.23598,-2.74712 7.40657,-10.27238 12.08221,-20.42036 13.8074,-29.96764 0.57738,-3.20156 0.59496,-5.05016 0.0476,-5.20484 -0.23214,-0.0654 -3.0814,-0.52144 -6.33087,-1.01441 -3.25009,-0.49297 -6.70127,-1.06598 -7.67033,-1.27279 -0.53475,-0.11396 -0.95575,-0.18685 -1.29656,-0.1974 z m 25.32607,2.87062 -0.43615,1.81849 c -0.49276,2.06347 -2.9093,9.37885 -3.62871,10.98692 -0.2623,0.5854 -0.47646,1.15817 -0.47646,1.27382 0,0.25113 -3.63914,7.56299 -4.71857,9.48106 -2.89915,5.15022 -5.87854,9.78455 -8.20517,12.76199 -0.55037,0.70506 -0.91448,1.3691 -0.8077,1.47588 0.10678,0.107 0.90241,-0.24133 1.76785,-0.77566 5.66367,-3.48962 10.18478,-4.53253 14.32417,-3.30264 2.04025,0.60546 2.79404,1.04294 5.33507,3.08973 h -10e-4 c 2.31629,1.86637 3.13377,1.86714 4.22248,0.004 3.49194,-5.97894 6.94955,-13.87903 8.63253,-19.72693 1.52027,-5.28339 3.12504,-15.09423 2.5523,-15.60471 -0.29186,-0.25831 -6.50094,-0.78952 -14.83732,-1.26814 z m 32.32512,0.89969 c -0.71193,-10e-4 -1.36669,0.0485 -2.10013,0.18603 -3.75847,0.70907 -3.27614,0.5352 -4.69428,8.29251 -0.16988,0.92854 -0.56226,2.59922 -0.87333,3.71346 -0.31021,1.11509 -0.64034,2.40668 -0.73277,2.87011 -0.4035,2.02274 -3.26269,11.09451 -5.05498,16.03982 -1.186,3.27247 -5.11934,12.89991 -5.89214,14.42081 -0.34925,0.68923 -0.63562,1.41991 -0.63562,1.62419 0,0.45688 4.31498,0.18567 11.97754,-4.68136 8.13949,-5.16837 8.6577,-8.08572 10.89907,-9.69294 5.78209,-4.0222 19.1673,3.89803 29.19198,6.63835 V 584.1626 l -27.41948,-1.92856 c -2.13388,-0.10981 -3.4793,-0.25211 -4.66586,-0.25373 z m -38.69475,39.09058 c -3.01366,0.0579 -5.98785,2.05157 -7.34217,3.94239 -1.473,2.07698 -8.72556,13.51094 -8.72556,13.75574 0,0.13632 -0.79906,1.38995 -5.35987,8.39999 -1.9071,2.93123 -2.50078,5.05258 -2.20555,7.89201 0.76008,6.35784 9.5083,9.47248 13.80121,8.28373 2.06009,-0.70274 3.6981,-2.33988 5.90971,-5.91075 1.18325,-1.90377 2.37824,-3.80066 3.58427,-5.69008 1.24998,-1.9611 2.48585,-3.93081 3.7083,-5.90919 1.33063,-2.14888 2.67807,-4.28728 4.04212,-6.41511 3.67618,-5.72043 4.28896,-8.40522 2.68976,-11.78531 -1.71716,-3.62996 -5.55718,-6.27725 -9.49967,-6.54843 -0.20079,-0.0139 -0.40164,-0.0188 -0.60255,-0.015 z" />
        <path
           id="path2032"
           style="display:inline;fill:url(#linearGradient2088);fill-opacity:1;stroke-width:0.211032"
           d="m 364.7127,684.91033 c -2.17178,0.14561 -4.17785,1.30331 -7.23831,4.1801 -1.63566,1.53265 -3.28062,3.05529 -4.93457,4.56819 -1.71496,1.57075 -3.419,3.15345 -5.11183,4.74803 -1.84147,1.73126 -3.69622,3.44829 -5.56451,5.15058 -5.03148,4.57405 -6.31811,7.00889 -5.64823,10.68771 0.71915,3.9507 3.74271,7.50162 7.48067,8.78395 3.04546,1.04701 6.77354,-0.1631 8.69093,-1.73736 1.96036,-1.62497 11.92505,-10.79231 11.98841,-11.02877 0.0353,-0.13168 1.13174,-1.13544 7.35147,-6.7262 2.60077,-2.33775 3.72314,-4.2337 4.17287,-7.05279 0.91135,-6.33793 -6.7326,-11.61059 -11.1869,-11.57344 z m -93.77969,23.11484 v 36.46026 l 21.40642,5.00486 c 3.2524,1.05338 4.53435,1.66443 6.51846,1.81642 3.81392,0.28786 3.30264,0.33103 6.6802,-6.79492 0.40442,-0.85293 1.21568,-2.36528 1.80454,-3.36103 0.58825,-0.99682 1.24133,-2.15908 1.45055,-2.58279 0.91328,-1.84938 6.02342,-9.87172 9.03458,-14.18465 1.99257,-2.854 8.2836,-11.13585 9.42371,-12.40491 0.51573,-0.57535 0.98169,-1.20673 1.03456,-1.40405 0.11825,-0.44132 -5.20415,-0.57443 -13.86529,2.14354 -9.19982,2.88561 -9.37177,4.84797 -11.95274,5.82031 -7.49385,2.70146 -22.44304,-5.0659 -31.53499,-10.51304 z m 60.97088,13.72472 c -0.52926,-0.0368 -1.05805,0.29614 -1.72909,0.96015 -4.92042,4.87144 -10.30442,11.60709 -13.44361,16.82014 -2.83591,4.70988 -6.9256,13.77122 -6.5045,14.41254 0.21506,0.32504 6.07585,2.44539 14.0043,5.06532 l 3.54086,1.17047 0.89142,-1.64383 c 1.01003,-1.86561 5.23786,-8.30622 6.34895,-9.67329 0.40488,-0.49756 0.75969,-0.99572 0.78962,-1.10743 0.065,-0.24257 5.47289,-6.36312 7.01197,-7.93646 4.13334,-4.22438 8.21078,-7.92967 11.22875,-10.2035 0.7141,-0.53859 1.23719,-1.08568 1.16169,-1.21646 -0.0754,-0.13098 -0.93365,-7.9e-4 -1.90789,0.29146 -6.37387,1.90485 -11.01053,1.74206 -14.69056,-0.51728 -1.81388,-1.11278 -2.42889,-1.73041 -4.35322,-4.36459 l -5.3e-4,-5.3e-4 c -0.98656,-1.35086 -1.66779,-2.00939 -2.34817,-2.05672 z m 31.06318,9.04544 c -0.64426,-0.0191 -1.22978,0.41928 -3.12228,1.96318 -9.81289,8.0054 -16.95584,16.59713 -21.09326,25.37258 -1.38633,2.94304 -1.88192,4.72462 -1.3932,5.01571 0.2073,0.12328 2.84118,1.30124 5.85235,2.61844 3.01176,1.31736 6.19715,2.76369 7.07966,3.21427 0.48704,0.24848 0.87501,0.42767 1.20148,0.52607 0.97978,0.29465 1.40923,-0.14184 2.31769,-1.63246 3.16749,-5.19803 10.33865,-13.03415 17.04028,-18.62054 2.29397,-1.91113 5.68648,-4.515 6.41562,-4.92218 0.11632,-0.0648 1.34327,-0.88693 2.72696,-1.82573 1.75502,-1.19124 2.44038,-1.83751 2.26549,-2.14043 -0.31352,-0.54302 -2.29921,-1.61665 -9.53481,-5.15575 -3.14513,-1.53793 -6.20165,-3.04747 -6.79234,-3.35431 v 10e-4 c -0.72533,-0.36114 -1.47754,-0.66632 -2.24947,-0.9126 -0.27841,-0.0841 -0.49941,-0.14092 -0.71417,-0.14728 z m 100.20824,0.076 c -0.96292,0.059 -3.29715,0.5927 -5.18573,1.18494 -2.3174,0.714 -4.65098,1.37524 -6.99853,1.98282 -5.13588,1.3052 -12.60025,3.17087 -14.98718,3.74602 -1.12984,0.27185 -3.15582,0.78687 -4.50101,1.14412 -1.34575,0.35688 -3.37196,0.87392 -4.50308,1.1498 -2.75198,0.68404 -5.50148,1.37817 -8.24858,2.08152 -3.40546,0.87027 -6.86518,1.74819 -7.68945,1.95182 -10.39413,2.57871 -11.31258,2.74717 -12.78938,2.34404 -1.68123,-0.45888 -6.07668,-2.48477 -8.29871,-3.8256 l -1.64331,-0.99167 -2.31872,1.42626 c -4.53724,2.79154 -7.64166,5.13638 -12.57906,9.50122 -2.47113,2.18417 -3.43919,3.14012 -7.37783,7.28689 -0.65455,0.68978 -1.6001,1.80559 -2.09961,2.48098 -0.65904,0.87953 -1.333,1.74789 -2.02158,2.60449 -2.61036,3.23377 -3.95907,5.37702 -3.68349,5.85286 0.11522,0.20106 1.67802,0.97866 3.47161,1.72754 3.24499,1.35603 4.28956,1.82668 9.31673,4.19922 1.7747,0.83734 3.36255,1.43747 4.71858,1.78749 1.05478,0.27238 1.96905,0.39309 2.72231,0.35657 3.10105,-0.15003 3.03237,-0.12807 32.92456,-10.58539 12.48851,-4.37029 31.46432,-10.7904 36.9052,-12.48863 l 9.33482,-2.91765 c 7.04338,-2.17268 10.52626,-5.29383 13.13975,-9.37564 4.09324,-7.38693 -0.43718,-12.79556 -7.60831,-12.62402 z" />
        <path
           id="path2034"
           style="display:inline;fill:url(#linearGradient2104);fill-opacity:1;fill-rule:nonzero;stroke:none;stroke-width:0.126045"
           d="m 416.9121,634.41177 c -1.91693,-0.69503 -4.0475,0.30151 -4.74644,2.22922 l -14.80577,40.83493 25.92192,3.40046 3.15296,-8.69599 -16.86469,-2.21288 12.24686,-33.77737 z m 17.00404,6.19609 -8.51465,-3.02259 -3.12646,8.62291 12.98235,1.64936 0.90363,-2.49226 c 0.70122,-1.93399 -0.30623,-4.0694 -2.24487,-4.75742 z m -0.095,11.21094 -12.96328,-1.70196 -2.19501,6.05394 12.98229,1.64953 z m -3.61226,9.96277 -12.96328,-1.70196 -2.19495,6.05376 12.98229,1.64953 z" />
        <path
           id="path2036"
           style="display:inline;fill:#0e141f;fill-opacity:1;fill-rule:nonzero;stroke:none;stroke-width:0.126045"
           d="m 403.01074,698.24198 c -1.93423,-0.7013 -2.96912,-2.85315 -2.26782,-4.78738 0.71376,-1.96859 2.89137,-2.9684 4.8256,-2.2671 1.94584,0.70552 2.97677,2.86867 2.26301,4.83726 -0.70131,1.93422 -2.87496,2.92274 -4.82079,2.21722 m -8.39595,-18.35148 -7.93746,21.89184 c -1.65433,4.56273 0.61337,8.92518 5.18735,10.5836 l 9.53509,3.45719 c 4.57411,1.65846 10.93121,0.42315 12.58554,-4.13957 l 10.12317,-27.92014 z" />
        <path
           style="display:inline;fill:#452981;fill-opacity:1;stroke-width:0.211032;filter:url(#filter1898)"
           d="m 403.18974,743.16146 c 0.22966,0.0895 1.04019,-0.21046 2.34729,-0.93272 2.07463,-1.1413 4.15473,-2.27263 6.24022,-3.39396 14.08554,-7.57212 17.18114,-9.36615 17.27651,-9.72205 0.93964,-1.27622 -0.48161,-2.74395 -1.70618,-2.91544 -1.18972,-0.16661 -1.86725,0.0244 -2.99255,0.27372 -2.10154,0.46482 -2.67281,0.8658 -10.33947,7.25628 -1.27177,1.05948 -2.54569,2.11639 -3.82175,3.1707 -0.8789,0.72558 -2.31383,1.91433 -3.18766,2.64214 -0.89125,0.74128 -1.78423,1.48049 -2.67891,2.21764 -1.01624,0.83537 -1.36717,1.31418 -1.1375,1.40369 z"
           id="path2042" />
        <path
           style="display:inline;fill:#7239b3;fill-opacity:1;stroke-width:0.211032;filter:url(#filter1898)"
           d="m 402.9766,744.56682 c 0.38034,0.11263 0.82149,0.0211 4.54638,-0.94624 1.1868,-0.30653 2.37471,-0.6087 3.56373,-0.90652 1.03017,-0.25704 2.14046,-0.58482 2.46777,-0.72761 0.32685,-0.14357 1.51935,-0.48297 2.64923,-0.75502 1.13045,-0.27169 3.41703,-0.8792 5.08102,-1.35158 4.27426,-1.20928 8.55449,-2.39735 12.84054,-3.56417 2.45636,-0.67143 4.91055,-1.35077 7.36254,-2.03799 1.97535,-0.55566 3.83934,-1.05289 4.14186,-1.10641 0.30333,-0.0533 1.06848,-0.26711 1.70053,-0.47506 0.63288,-0.20774 1.93577,-0.56123 2.89593,-0.78613 2.1419,-0.50209 3.06593,-1.23872 3.47693,-2.77262 0.5912,-4.06304 -5.4503,-4.64845 -8.12395,-4.60955 -3.0112,0.35406 -3.63737,0.31133 -5.7675,1.42917 -1.72236,0.89031 -3.45218,1.7661 -5.18929,2.62729 -1.88396,0.93539 -6.0657,3.04026 -9.29221,4.67771 -3.62488,1.83639 -7.25859,3.65533 -10.90097,5.45677 -5.42555,2.67412 -7.56588,3.76234 -9.29181,4.72435 -0.60389,0.33762 -1.4269,0.70217 -1.8275,0.81025 -0.40043,0.10834 -0.55048,0.24925 -0.33303,0.31342 z"
           id="path2044" />
        <path
           style="display:inline;fill:#452981;fill-opacity:1;stroke-width:0.211032;filter:url(#filter1894)"
           d="m 409.01148,617.03718 c -0.245,-0.027 -0.95027,0.4725 -2.0259,1.50845 -1.70855,1.63937 -3.42496,3.27052 -5.14917,4.8934 -11.64578,10.95972 -14.4295,13.19312 -14.50241,14.38314 -0.17604,2.87324 4.00174,1.61286 5.55319,0.81472 1.90963,-0.9929 2.35765,-1.52807 8.1091,-9.68508 0.95422,-1.35254 1.91118,-2.70315 2.87088,-4.0518 0.66116,-0.92833 1.73953,-2.44797 2.39521,-3.37714 0.66903,-0.94669 1.34026,-1.89184 2.01366,-2.83542 0.76541,-1.06993 0.98045,-1.62326 0.73544,-1.65027 z"
           id="path2046" />
        <path
           style="display:inline;fill:#7239b3;fill-opacity:1;stroke-width:0.211032;filter:url(#filter1894)"
           d="m 408.85363,615.62453 c -0.39653,-0.0104 -0.79896,0.19225 -4.14656,2.09069 -1.06703,0.60325 -2.13626,1.20258 -3.20768,1.79799 -0.92854,0.51492 -1.91616,1.11889 -2.19536,1.34153 -0.27856,0.22327 -1.34258,0.85974 -2.36355,1.41497 -1.02161,0.55501 -3.07304,1.73362 -4.55807,2.62059 -3.81564,2.27433 -7.64253,4.52972 -11.48054,6.76609 -2.19888,1.28431 -4.39362,2.57569 -6.58419,3.87412 -1.76423,1.04798 -3.43602,2.0107 -3.71437,2.1407 -0.2792,0.13 -0.96294,0.53455 -1.51964,0.899 -0.55754,0.36446 -1.72455,1.04312 -2.59379,1.50887 -1.93896,1.03934 -2.64085,1.99003 -2.64085,3.57804 0.48054,4.07761 6.4677,3.07941 9.04018,2.34985 2.81696,-1.12135 3.43285,-1.24214 5.20108,-2.87321 1.43324,-1.30576 2.87745,-2.59942 4.33248,-3.88086 1.57767,-1.39112 5.07214,-4.50658 7.7649,-6.92332 3.02608,-2.712 6.06519,-5.40944 9.11721,-8.09221 4.54857,-3.98723 6.33432,-5.59234 7.75245,-6.96827 0.49593,-0.48241 1.19655,-1.04756 1.55552,-1.25564 0.35875,-0.20828 0.46722,-0.38323 0.24057,-0.38893 z"
           id="path2048" />
      </g>
    </g>
  </g>
</svg>
